<?xml version="1.0" encoding="UTF-8" standalone="no" ?>
<!DOCTYPE svg PUBLIC "-//W3C//DTD SVG 1.1//EN" "http://www.w3.org/Graphics/SVG/1.1/DTD/svg11.dtd">
<svg xmlns="http://www.w3.org/2000/svg" xmlns:xlink="http://www.w3.org/1999/xlink" version="1.1" width="48" height="48" viewBox="0 0 48 48" xml:space="preserve">
<desc>Created with Fabric.js 4.2.0</desc>
<defs>
</defs>
<rect x="0" y="0" width="100%" height="100%" fill="transparent"></rect>
<g transform="matrix(1 0 0 1 24 24)" id="efcaff5e-5158-4e79-8001-da1ddf1871a2"  >
<rect style="stroke: none; stroke-width: 1; stroke-dasharray: none; stroke-linecap: butt; stroke-dashoffset: 0; stroke-linejoin: miter; stroke-miterlimit: 4; fill: rgb(217,138,11); fill-opacity: 0; fill-rule: nonzero; opacity: 1;" vector-effect="non-scaling-stroke"  x="-24" y="-24" rx="0" ry="0" width="48" height="48" />
</g>
<g transform="matrix(Infinity NaN NaN Infinity 0 0)" id="1c9cdade-94e4-401d-8aaf-564ea3f515ac"  >
</g>
<g transform="matrix(1.1 0 0 1.1 24 24)" id="bc701bdc-ecf5-495a-8c9d-04008387bfe5"  >
<path style="stroke: rgb(0,0,0); stroke-width: 0; stroke-dasharray: none; stroke-linecap: butt; stroke-dashoffset: 0; stroke-linejoin: miter; stroke-miterlimit: 4; fill: rgb(0,0,0); fill-rule: nonzero; opacity: 1;" vector-effect="non-scaling-stroke"  transform=" translate(-12, -12)" d="M 14.965 14.255 L 15.755 14.255 L 20.745 19.255 L 19.255 20.745 L 14.255 15.755 L 14.255 14.965 L 13.985 14.685 C 12.845 15.665 11.365 16.255 9.755 16.255 C 6.165 16.255 3.255 13.345 3.255 9.755 C 3.255 6.165 6.165 3.255 9.755 3.255 C 13.345 3.255 16.255 6.165 16.255 9.755 C 16.255 11.365 15.665 12.845 14.685 13.985 L 14.965 14.255 Z M 5.255 9.755 C 5.255 12.245 7.26501 14.255 9.755 14.255 C 12.245 14.255 14.255 12.245 14.255 9.755 C 14.255 7.26501 12.245 5.255 9.755 5.255 C 7.26501 5.255 5.255 7.26501 5.255 9.755 Z" stroke-linecap="round" />
</g>
</svg>